<?xml version="1.0" encoding="utf-8"?>
<!-- Generator: Adobe Illustrator 27.7.0, SVG Export Plug-In . SVG Version: 6.00 Build 0)  -->
<svg version="1.1" id="Layer_1" xmlns="http://www.w3.org/2000/svg" xmlns:xlink="http://www.w3.org/1999/xlink" x="0px" y="0px"
	 viewBox="0 0 494.1 184.5" style="enable-background:new 0 0 494.1 184.5;" xml:space="preserve">
<style type="text/css">
	.st0{fill:#487629;}
	.st1{fill:#76BB43;}
	.st2{fill:#77BC43;}
	.st3{fill:#8EC1CB;}
	.st4{fill:#FDBE50;}
</style>
<g>
	<g>
		<g>
			<path class="st0" d="M420.9,67.1c-1.4-1.8-4.8-4.9-6.6-6.7c-2.8-2.8-3.5-3.6-3.4-8.3l0.1-20.1c0-2.9-4.4-2.5-4.4,0.1
				c0,0-0.5,34.9-0.2,37.9c0.3,3-1.2,5.3,3.5,8.3c5.2,3.4,12.8,5.6,12.8,5.6s0.1-7.7,0.3-10.5C423,70.5,422.3,69,420.9,67.1
				 M418.6,78C418.6,78,418.6,78.1,418.6,78c-7.4-3-8.7-2.4-7.7-13.6C419.6,69.8,419,71.7,418.6,78"/>
		</g>
		<g>
			<path class="st0" d="M427.2,73.4c0.1,2.9,0.2,10.5,0.2,10.5s7.6-2.2,12.8-5.5c4.8-3,3.3-5.3,3.6-8.3c0.3-3,0.2-37.9,0.2-37.9
				c0-2.6-4.4-3-4.4-0.1l-0.1,20.1c0,4.7-0.7,5.5-3.5,8.3c-1.8,1.8-5.2,4.8-6.7,6.6C427.9,69,427.1,70.5,427.2,73.4 M439.3,64.5
				c0.9,11.2-0.4,10.6-7.8,13.6c0,0,0,0,0,0C431.2,71.8,430.6,69.8,439.3,64.5"/>
			<path class="st0" d="M431,46.8c-2.6-4.6,0,0-3.5-6l0.1-22.2c0-3.5-4.4-3.2-4.4,0l0,22.1c0,0-3.8,6.3-4.8,8.8s-2.5,5.5,1.1,9.5
				c0.3,0.3,0.7,1.2,5.9,6l0.1-0.1c0,0,0,0,4.5-4.5C435.5,54.9,433.5,51.3,431,46.8 M425.2,59.6c-8.5-4.6-2.4-10.7,0.1-14.8l0.2,0.3
				C431.7,54.6,430,56,425.2,59.6"/>
		</g>
		<g>
			<path class="st0" d="M422.5,94.2c-0.2-4.3-1.7-8.2-10.6-11.6c-7.5-2.8-18-3.5-25.7-4.8c-7.7-1.3-20.4-3.4-26.8-9.5
				c4.7,15.9,16.7,22.6,28.8,25.3c13.8,3,26.1,4.3,33.6,9.6l0.8,0.5C422.1,100,422.7,98.6,422.5,94.2 M418.6,96.3
				c-6.6-2.6-11-3.2-22.8-5.7c-11.9-2.4-18.9-4.6-25.3-11.4c10.3,4,26.8,5.5,35.8,7.5C415.3,88.6,417.7,90.9,418.6,96.3L418.6,96.3z
				"/>
			<path class="st0" d="M427.2,103.7l0.8-0.5c7.5-5.2,19.9-6.4,33.7-9.2c12.2-2.5,24.2-9.1,29-25c-6.4,6.1-19.2,8.1-26.9,9.3
				c-7.7,1.2-18.3,1.8-25.8,4.5c-8.9,3.3-10.5,7.1-10.7,11.5C427.1,98.6,427.7,100.1,427.2,103.7 M431.2,96.3
				c1-5.3,3.4-7.7,12.5-9.5c9-1.9,25.5-3.2,35.8-7.1c-6.4,6.7-13.5,8.9-25.4,11.2C442.2,93.2,437.8,93.9,431.2,96.3L431.2,96.3z"/>
			<path class="st0" d="M421.9,114.4c0.1-8.5-4.8-11-12-12.9c-7.3-1.9-17.5-3.4-26.1-6c-8.6-2.5-13.4-4.2-19.3-10.6
				c1.2,12.4,9.8,21.2,20.4,25s10.1,3,15.8,4.5c5.8,1.5,6.8,3.6,6.8,7.1l0,7.3l14.3,0.1C422.2,112.4,421.8,123,421.9,114.4
				 M417.7,124.3l-5.8,0c0,0,0.1-2.4-0.2-6.6c-0.4-5.5-6.8-6-17.3-9c-7.2-2-16.6-4.7-20.8-11.9c2.6,1.1,7.7,3.3,16,5.1
				c7.9,1.7,12.5,2.6,19.8,4.2c7,1.5,8.3,5.8,8.3,10.5L417.7,124.3z"/>
			<path class="st0" d="M427.4,129l14.3,0.1l0-7.3c0-3.6,1.1-5.7,6.8-7.1c5.8-1.4,5.2-0.6,15.9-4.3c10.7-3.7,19.4-12.4,20.7-24.8
				c-5.9,6.3-10.7,7.9-19.4,10.4c-8.7,2.5-18.8,3.9-26.1,5.7c-7.3,1.9-12.2,4.3-12.2,12.8C427.5,123,427.2,112.4,427.4,129
				 M431.6,116.6c0-4.7,1.4-9,8.4-10.4c7.3-1.5,11.9-2.4,19.9-4c8.4-1.7,13.5-3.8,16.1-4.9c-4.2,7.2-13.7,9.7-20.9,11.7
				c-10.5,2.9-16.9,3.3-17.4,8.8c-0.4,4.2-0.2,6.6-0.2,6.6l-5.8,0L431.6,116.6z"/>
			<path class="st0" d="M392.8,168.8c-1.8,0.4-3.8,0.8-5.7,0.8c-8.1,0-13.8-4.1-13.7-12.6c0-8.6,5.3-13.4,13.8-13.4
				c1.7,0,3.9,0.3,5.7,1.1l-0.4,4.2c-1.9-1.1-3.6-1.4-5.4-1.4c-5.2,0-8.4,3.9-8.5,9.1c0,5.1,3.1,9,8.5,9c2,0,4.3-0.4,5.5-1
				L392.8,168.8z"/>
			<path class="st0" d="M416.2,149c-1.9-0.9-4.5-1.4-6.5-1.4c-5.9,0-9.1,3.9-9.1,9.1c0,5.1,3.1,9,8.5,9c1.4,0,2.4-0.1,3.3-0.4l0-6.6
				l-5.3,0l0-4l10.2,0l-0.1,13.5c-2.7,0.7-5.4,1.3-8.1,1.3c-8.1,0-13.8-4.1-13.7-12.6c0-8.6,5.3-13.4,13.9-13.4
				c2.9,0,5.2,0.4,7.4,1.1L416.2,149z"/>
			
				<rect x="412" y="154.2" transform="matrix(4.429603e-03 -1 1 4.429603e-03 266.0169 580.6199)" class="st0" width="25.1" height="5"/>
			<path class="st0" d="M446.1,159.7l-7.3,0l3.7-10.3h0.1L446.1,159.7z M429.9,169.3l5.2,0l2.2-5.7l10.2,0l2.1,5.8l5.6,0l-9.8-25.2
				l-5.7,0L429.9,169.3z"/>
			<path class="st0" d="M463.2,148.3l1.7,0c2.5,0,5.3,0.3,5.3,3.3c0,3.1-2.9,3.5-5.3,3.5l-1.7,0L463.2,148.3z M458,169.5l5,0l0-10.4
				l1.6,0c2.1,0,2.8,0.7,3.5,2.6l3,7.9l5.6,0l-4-9.8c-0.5-1.1-1.3-2.5-2.7-2.6V157c3.2-0.4,5.2-2.9,5.2-5.8c0-7-6.4-6.8-11.8-6.8
				l-5.4,0L458,169.5z"/>
		</g>
	</g>
	<g>
		<g>
			<polygon points="326.8,171.5 325,171.5 325.7,16.3 327.5,16.3 			"/>
		</g>
	</g>
	<g>
		<g>
			<g>
				<path class="st1" d="M139.2,59.4l0-42.8h1.9l0,42.7l0,0.1l0.1,13l-0.5,5.3c0,0-0.5,3.8-2.7,5.8c0,0-1.4,1.8-2.9,3
					c-1.5,1.3-2,3-2,3l-0.4,3.1l3.2-4.4c3.3-3.5,6.4-6.3,6.9-11.5l0.1-1.6l0-58.5h1.9v61.2l0,0.6c0,0-0.3,8.4-3.5,15.8
					c0,0-1.3,2.6-2.6,4.8c-1.7,2.9-3.9,4.4-5.8,8.7l-0.2,3l-2.5,0.1l-0.2-6.1c0,0-0.3-1.1-0.5-3.1c-0.2-2-1.2-3.7-1.2-3.7l-0.2-0.3
					c-11-13-9.9-24.5-9.9-24.5l-0.1-1.8l0-54.7l1.8,0l0.1,49.6l0.2,3.4c0,0-0.4,4.2,2.6,7.4c2.1,2.3,2.2,2.1,4,4.1
					c1.7,1.9,2.7,4.4,2.7,4.4l0.1-2.4l-0.8-2.4l-1.3-1.7c-6.4-5.4-5.4-12.2-5.4-12.2l-0.1-50.3h1.7l0,35l0.6,3c0,0,1.3,4.1,2.6,7.3
					c2.2,5.3,3.9,8.4,3.9,8.4s-0.2-4.3-0.8-5.3c-0.6-1.1-1.7-3.7-1.7-3.7c-1.4-3.5-2-6.6-2-6.6l-0.6-2.4l-0.1-1.9l0-33.7l1.7,0
					c0,0,0,19.4,0,21.7c0,4,1,5.5,1.7,7c0.7,1.5,1.4,4.3,1.4,4.3s0.5-1.7-0.7-6.7c-0.3-1.3-0.6-6.1-0.6-6.1v-20l1.7,0l0,13.2
					c0,0,0.6,5.7,1.1,4.2c0.6-1.6,0.7-3.2,0.7-3.2l0-14.2l1.8,0l0,30.4c0,0-0.2,3.9-1,6.2c-0.9,2.8-0.5,4.6-0.5,4.6s1-1.2,1.8-4
					c0.4-1.3,1.5-5.4,1.5-5.4V16.6h1.8v42.1c0,0-0.5,3.5-2.3,8.6c-1.2,3.5-1.8,4.2-2.1,5.5c-0.4,1.8-0.2,3.6-0.2,3.6l2.5-5.6
					c0.6-1.2,1.4-3,1.4-3s0.6-1.4,1.4-3.9L139.2,59.4z"/>
			</g>
			<g>
				<path class="st1" d="M164.5,50.3c0.6,0.2,1.3,0.6,1.8,1.2c0.2,0.3,0.4,0.7,0.5,1.2c0.2,1,0.2,1.7-0.4,2.5
					c-0.6,0.7-1.2,0.8-1.9,0.8c-0.8,0-1.3-0.3-1.9-0.4c-0.6-0.1-1-0.5-1.4-0.8c-0.4-0.3-0.6-0.7-0.7-1.5c-0.2-0.8-0.1-1.3,0-1.9
					c0.1-0.6,0.2-0.9,0.7-1.2c0.5-0.3,0.9-0.4,1.5-0.3c0.3,0,0.6,0.1,0.9,0.2L164.5,50.3z"/>
			</g>
			<g>
				<path class="st1" d="M154.4,41.2c0.1,0.6,0.1,1.4,0.3,2.2c0.2,1.3,0.4,2,0.5,2.4c0,0.4,0,0.7-0.4,1c-0.2,0.1-0.3,0.1-0.3,0.1
					c-0.3-0.1-0.5-0.3-0.6-0.9c-0.1-0.7-0.3-1.5-0.3-2.3c0-0.8-0.1-1.2,0-2c0-0.4,0.1-0.7,0.2-0.9c0-0.1,0.1-0.1,0.3-0.1
					C154.3,40.8,154.4,41,154.4,41.2"/>
			</g>
			<g>
				<path class="st1" d="M154.6,33.9v0.7c0,0.6,0.1,1.5,0.3,2.5c0.3,1.4,0.4,2.1,0.2,2.7c-0.1,0.1-0.2,0.3-0.3,0.4
					c-0.3,0.2-0.4,0.2-0.7-0.1c-0.3-0.4-0.4-0.9-0.5-1.7l-0.1-1.2c-0.1-1.2-0.1-2,0.1-2.8c0.1-0.5,0.1-0.8,0.3-1.1
					c0.1-0.1,0.1-0.1,0.3-0.1C154.5,33.4,154.6,33.6,154.6,33.9"/>
			</g>
			<g>
				<path class="st1" d="M154.4,47.6c0.1,0.6,0.2,1.4,0.3,2.2c0.2,1.3,0.4,2,0.5,2.4c0,0.4,0,0.7-0.4,1c-0.2,0.2-0.3,0.1-0.4,0.1
					c-0.3-0.1-0.5-0.3-0.6-0.9c-0.1-0.7-0.3-1.5-0.3-2.3c0-0.8,0-1.2,0-2c0-0.4,0.1-0.7,0.2-0.9c0,0,0-0.1,0.3,0
					C154.2,47.2,154.3,47.3,154.4,47.6"/>
			</g>
			<g>
				<path class="st1" d="M164.5,44c0.6,0.2,1.3,0.6,1.8,1.2c0.2,0.3,0.4,0.7,0.5,1.2c0.2,1,0.2,1.7-0.4,2.5
					c-0.6,0.7-1.2,0.8-1.9,0.8c-0.8,0-1.3-0.3-1.9-0.4c-0.6-0.1-1-0.5-1.4-0.8c-0.4-0.3-0.6-0.7-0.7-1.5c-0.2-0.8-0.1-1.3,0-1.9
					c0.1-0.6,0.2-0.9,0.7-1.2c0.5-0.3,0.9-0.4,1.5-0.3c0.3,0,0.6,0.1,0.9,0.2L164.5,44z"/>
			</g>
			<g>
				<path class="st1" d="M164.5,62.7c0.6,0.2,1.3,0.6,1.8,1.2c0.2,0.3,0.4,0.7,0.5,1.2c0.2,1,0.2,1.7-0.4,2.5
					c-0.6,0.7-1.2,0.8-1.9,0.8c-0.8,0-1.3-0.3-1.9-0.4c-0.6-0.1-1-0.5-1.4-0.7c-0.4-0.3-0.6-0.7-0.7-1.5c-0.2-0.8-0.1-1.3,0-1.9
					c0.1-0.6,0.2-0.9,0.7-1.2c0.5-0.3,0.9-0.4,1.5-0.3c0.3,0,0.6,0.1,0.9,0.1L164.5,62.7z"/>
			</g>
			<g>
				<path class="st1" d="M164.5,56.5c0.6,0.2,1.3,0.6,1.8,1.2c0.2,0.3,0.4,0.7,0.5,1.2c0.2,1,0.2,1.7-0.4,2.5
					c-0.6,0.7-1.2,0.8-1.9,0.8c-0.8-0.1-1.3-0.3-1.9-0.4c-0.6-0.1-1-0.5-1.4-0.7c-0.4-0.3-0.6-0.7-0.7-1.5c-0.2-0.8-0.1-1.3,0-1.9
					c0.1-0.6,0.2-0.9,0.7-1.2c0.5-0.3,0.9-0.4,1.5-0.3c0.3,0,0.6,0.1,0.9,0.2L164.5,56.5z"/>
			</g>
			<g>
				<path class="st1" d="M164.5,75.1c0.6,0.2,1.3,0.6,1.8,1.2c0.2,0.3,0.4,0.7,0.5,1.2c0.2,1,0.2,1.7-0.4,2.5
					c-0.6,0.7-1.1,0.8-1.9,0.8c-0.8-0.1-1.3-0.3-1.9-0.4c-0.6-0.1-1-0.4-1.4-0.7c-0.4-0.3-0.6-0.7-0.7-1.5c-0.2-0.8-0.1-1.3,0-1.9
					c0.1-0.6,0.2-0.9,0.7-1.2c0.5-0.3,0.9-0.4,1.5-0.3c0.3,0,0.6,0,0.9,0.1L164.5,75.1z"/>
			</g>
			<g>
				<path class="st1" d="M164.5,68.9c0.6,0.2,1.3,0.6,1.8,1.2c0.2,0.3,0.4,0.7,0.5,1.2c0.2,1,0.2,1.7-0.4,2.5
					c-0.6,0.7-1.2,0.8-1.9,0.8c-0.8,0-1.3-0.2-1.9-0.4s-1-0.5-1.4-0.7c-0.4-0.3-0.6-0.7-0.7-1.5c-0.2-0.8-0.1-1.3,0-1.9
					c0.1-0.6,0.2-0.9,0.7-1.2c0.5-0.3,0.9-0.4,1.5-0.3c0.3,0,0.6,0.1,0.9,0.1L164.5,68.9z"/>
			</g>
			<g>
				<path class="st1" d="M164.5,87.6c0.6,0.2,1.3,0.6,1.8,1.2c0.2,0.3,0.4,0.7,0.5,1.2c0.2,1,0.2,1.7-0.4,2.4
					c-0.6,0.7-1.2,0.8-1.9,0.8c-0.8-0.1-1.3-0.3-1.9-0.4c-0.6-0.1-1-0.5-1.4-0.7c-0.4-0.3-0.6-0.7-0.7-1.5c-0.2-0.8-0.1-1.3,0-1.9
					c0.1-0.6,0.2-0.9,0.7-1.2c0.5-0.3,0.9-0.4,1.5-0.3c0.3,0,0.6,0.1,0.9,0.2L164.5,87.6z"/>
			</g>
			<g>
				<path class="st1" d="M164.5,81.4c0.6,0.2,1.3,0.6,1.8,1.2c0.2,0.3,0.4,0.7,0.5,1.2c0.2,1,0.2,1.7-0.4,2.5
					c-0.6,0.7-1.2,0.8-1.9,0.8c-0.8,0-1.3-0.3-1.9-0.4c-0.6-0.1-1-0.5-1.4-0.7c-0.4-0.3-0.6-0.7-0.7-1.5c-0.2-0.8-0.1-1.3,0-1.9
					c0.1-0.6,0.2-0.8,0.7-1.2c0.5-0.3,0.9-0.4,1.5-0.3c0.3,0,0.6,0.1,0.9,0.2L164.5,81.4z"/>
			</g>
			<g>
				<path class="st1" d="M164.5,100c0.6,0.2,1.3,0.6,1.8,1.2c0.2,0.3,0.4,0.7,0.5,1.2c0.2,1,0.2,1.7-0.4,2.5
					c-0.6,0.7-1.2,0.9-1.9,0.8c-0.8,0-1.3-0.3-1.9-0.4c-0.6-0.1-1-0.5-1.4-0.7c-0.4-0.3-0.6-0.7-0.7-1.5c-0.2-0.8-0.1-1.3,0-1.9
					c0.1-0.6,0.2-0.9,0.7-1.2c0.5-0.3,0.9-0.4,1.5-0.3c0.3,0,0.6,0.1,0.9,0.2L164.5,100z"/>
			</g>
			<g>
				<path class="st1" d="M164.5,93.8c0.6,0.2,1.3,0.6,1.8,1.2c0.2,0.3,0.4,0.7,0.5,1.2c0.2,1,0.2,1.7-0.4,2.5
					c-0.6,0.7-1.2,0.8-1.9,0.8c-0.8,0-1.4-0.3-1.9-0.4c-0.6-0.1-1-0.5-1.4-0.7c-0.4-0.3-0.6-0.7-0.7-1.5c-0.2-0.8-0.1-1.3,0-1.9
					c0.1-0.6,0.2-0.9,0.7-1.2c0.5-0.3,0.9-0.4,1.5-0.3c0.3,0,0.6,0.1,0.9,0.2L164.5,93.8z"/>
			</g>
			<g>
				<path class="st1" d="M164.5,106.2c0.6,0.2,1.3,0.6,1.8,1.2c0.2,0.3,0.4,0.7,0.5,1.2c0.2,1,0.2,1.7-0.4,2.5
					c-0.6,0.7-1.2,0.8-1.9,0.8c-0.8-0.1-1.3-0.3-1.9-0.4c-0.6-0.1-1-0.5-1.4-0.7c-0.4-0.3-0.6-0.7-0.7-1.5c-0.2-0.8-0.1-1.3,0-2
					c0.1-0.6,0.2-0.9,0.7-1.2c0.5-0.3,0.9-0.4,1.5-0.3c0.3,0,0.6,0.1,0.9,0.2l0.1,0L164.5,106.2z"/>
			</g>
			<g>
				<path class="st1" d="M160,51.3c-0.1,0.6-0.5,0.8-0.9,0.9c-0.5,0.1-0.8,0.1-1.3-0.2c-0.5-0.3-0.8-0.5-1.1-0.9
					c-0.3-0.4-0.7-0.8-1-1.6c-0.3-0.7-0.6-1.6-0.4-2.4c0.1-0.7,0.6-1.1,1.1-1.2c0.5-0.1,1.2,0.1,1.6,0.5c0.4,0.4,0.8,0.8,1.1,1.1
					c0.5,0.6,1.2,1.9,1.1,2.9C160.1,50.7,160,51,160,51.3"/>
			</g>
			<g>
				<path class="st1" d="M160,57.6c-0.1,0.5-0.5,0.8-0.9,0.9c-0.5,0.1-0.8,0.1-1.3-0.2c-0.5-0.3-0.8-0.5-1.1-0.9
					c-0.3-0.4-0.7-0.8-1-1.6c-0.3-0.7-0.6-1.6-0.4-2.4c0.1-0.7,0.6-1.1,1.1-1.2c0.5-0.1,1.2,0.1,1.6,0.5c0.4,0.4,0.8,0.8,1.1,1.1
					c0.5,0.6,1.2,1.9,1.1,2.9C160.1,57,160,57.3,160,57.6"/>
			</g>
			<g>
				<path class="st1" d="M160,63.9c-0.1,0.6-0.5,0.8-0.9,0.9c-0.5,0.1-0.8,0.1-1.3-0.2c-0.5-0.3-0.8-0.5-1.1-0.9
					c-0.3-0.4-0.7-0.8-1-1.6c-0.3-0.7-0.6-1.6-0.4-2.4c0.1-0.8,0.6-1.1,1.1-1.2c0.5-0.1,1.2,0.1,1.6,0.5c0.4,0.4,0.8,0.8,1.1,1.1
					c0.3,0.3,0.6,0.8,0.8,1.3c0.2,0.5,0.3,1.1,0.3,1.6C160.1,63.3,160,63.6,160,63.9"/>
			</g>
			<g>
				<path class="st1" d="M160,70.2c-0.1,0.6-0.5,0.8-0.9,0.9c-0.5,0.1-0.8,0.1-1.3-0.2c-0.5-0.3-0.8-0.5-1.1-0.9
					c-0.3-0.4-0.7-0.8-1-1.6c-0.3-0.7-0.6-1.6-0.4-2.4c0.1-0.8,0.6-1.1,1.1-1.2c0.5-0.1,1.2,0.1,1.6,0.5c0.4,0.4,0.8,0.8,1.1,1.1
					c0.5,0.6,1.2,1.9,1.1,2.9C160.1,69.7,160,69.9,160,70.2"/>
			</g>
			<g>
				<path class="st1" d="M160,76.5c-0.1,0.6-0.5,0.8-0.9,0.9c-0.5,0.1-0.8,0.1-1.3-0.2c-0.5-0.3-0.8-0.5-1.1-0.9
					c-0.3-0.4-0.7-0.8-1-1.6c-0.3-0.7-0.6-1.6-0.4-2.4c0.1-0.8,0.6-1.1,1.1-1.2c0.5-0.1,1.2,0.1,1.6,0.4c0.4,0.4,0.8,0.8,1.1,1.1
					c0.5,0.6,1.2,1.9,1.1,2.9C160.1,76,160,76.3,160,76.5"/>
			</g>
			<g>
				<path class="st1" d="M160,82.9c-0.1,0.5-0.5,0.8-0.9,0.9c-0.5,0.1-0.8,0.1-1.3-0.2c-0.5-0.3-0.8-0.5-1.1-0.9
					c-0.3-0.3-0.7-0.8-1-1.6c-0.3-0.7-0.6-1.6-0.4-2.4c0.1-0.8,0.6-1.1,1.1-1.2c0.5-0.1,1.2,0.1,1.6,0.5c0.4,0.4,0.8,0.8,1.1,1.1
					c0.5,0.6,1.2,1.9,1.1,2.9C160.1,82.3,160,82.6,160,82.9"/>
			</g>
			<g>
				<path class="st1" d="M160,89.2c-0.1,0.6-0.5,0.8-0.9,0.9c-0.5,0.1-0.8,0.1-1.3-0.2c-0.5-0.3-0.8-0.5-1.1-0.9
					c-0.3-0.4-0.7-0.8-1-1.6c-0.3-0.7-0.6-1.6-0.4-2.4c0.1-0.7,0.6-1.1,1.1-1.2c0.5-0.1,1.2,0.1,1.6,0.5c0.4,0.4,0.8,0.8,1.1,1.1
					c0.5,0.6,1.2,1.9,1.1,2.9C160.1,88.6,160,88.9,160,89.2"/>
			</g>
			<g>
				<path class="st1" d="M160,95.5c-0.1,0.6-0.5,0.8-0.9,0.9c-0.5,0.1-0.8,0.1-1.3-0.2c-0.5-0.3-0.8-0.5-1.1-0.9
					c-0.3-0.4-0.7-0.8-1-1.6c-0.3-0.8-0.6-1.6-0.4-2.4c0.1-0.7,0.6-1.1,1.1-1.2c0.5-0.1,1.2,0.1,1.6,0.4c0.4,0.4,0.8,0.8,1.1,1.1
					c0.3,0.3,0.6,0.8,0.8,1.4c0.2,0.5,0.3,1.1,0.3,1.6C160.1,94.9,160,95.2,160,95.5"/>
			</g>
			<g>
				<path class="st1" d="M160,101.8c-0.1,0.6-0.5,0.8-0.9,0.9c-0.5,0.1-0.8,0.1-1.3-0.2c-0.5-0.3-0.8-0.5-1.1-0.9
					c-0.3-0.4-0.7-0.8-1-1.6c-0.3-0.8-0.6-1.6-0.4-2.4c0.1-0.8,0.6-1.1,1.1-1.2c0.5-0.1,1.2,0.1,1.6,0.5c0.4,0.4,0.8,0.8,1.1,1.1
					c0.3,0.3,0.6,0.8,0.8,1.4c0.2,0.5,0.3,1.1,0.3,1.6C160.1,101.3,160,101.5,160,101.8"/>
			</g>
			<g>
				<path class="st1" d="M159.9,107.8c-0.1,0.6-0.5,0.8-0.9,0.9c-0.5,0.1-0.8,0.1-1.3-0.2c-0.5-0.3-0.8-0.5-1.1-0.9
					c-0.3-0.4-0.7-0.8-1.1-1.6c-0.3-0.8-0.6-1.6-0.4-2.4c0.1-0.8,0.6-1.1,1.1-1.2c0.5-0.1,1.2,0.1,1.6,0.4c0.4,0.4,0.8,0.8,1.1,1.2
					c0.3,0.3,0.6,0.8,0.8,1.3c0.2,0.5,0.4,1.1,0.3,1.6C160,107.2,160,107.5,159.9,107.8"/>
			</g>
			<g>
				<path class="st1" d="M154.4,53.8c0.1,0.6,0.2,1.4,0.3,2.2c0.2,1.3,0.4,2,0.5,2.5c0,0.4,0,0.7-0.4,1c-0.2,0.1-0.3,0.1-0.4,0.1
					c-0.3-0.1-0.5-0.3-0.6-0.9c-0.1-0.7-0.3-1.5-0.3-2.3c0-0.8,0-1.2,0-2c0-0.4,0.1-0.7,0.2-0.9c0-0.1,0-0.1,0.3-0.1
					C154.2,53.5,154.3,53.6,154.4,53.8"/>
			</g>
			<g>
				<path class="st1" d="M154.3,60.1c0.1,0.6,0.1,1.4,0.3,2.2c0.2,1.2,0.4,2,0.5,2.4c0,0.4,0,0.7-0.4,1c-0.2,0.1-0.3,0.1-0.4,0.1
					c-0.3-0.1-0.5-0.3-0.6-0.9c-0.1-0.7-0.3-1.5-0.3-2.3c0-0.8,0-1.2,0-2.1c0-0.4,0.1-0.7,0.2-0.9c0,0,0-0.1,0.3,0
					C154.2,59.7,154.3,59.8,154.3,60.1"/>
			</g>
			<g>
				<path class="st1" d="M154.3,66.3c0.1,0.6,0.1,1.4,0.3,2.2c0.2,1.3,0.4,2,0.5,2.5c0,0.4,0,0.7-0.4,1c-0.2,0.1-0.3,0.1-0.4,0.1
					c-0.3-0.1-0.5-0.3-0.6-0.9c-0.1-0.7-0.3-1.5-0.3-2.3c0-0.8,0-1.2,0-2.1c0-0.4,0.1-0.7,0.2-0.9c0-0.1,0-0.1,0.3-0.1
					C154.2,66,154.3,66.1,154.3,66.3"/>
			</g>
			<g>
				<path class="st1" d="M154.4,72.6c0.1,0.6,0.2,1.4,0.3,2.2c0.2,1.3,0.4,2,0.5,2.5c0,0.4,0,0.7-0.4,1c-0.2,0.1-0.3,0.1-0.4,0.1
					c-0.3-0.1-0.5-0.3-0.6-0.9c-0.1-0.7-0.3-1.5-0.3-2.3c0-0.8,0-1.2,0-2.1c0-0.4,0.1-0.7,0.2-0.9c0,0,0-0.1,0.3,0
					C154.2,72.2,154.3,72.3,154.4,72.6"/>
			</g>
			<g>
				<path class="st1" d="M154.3,78.9c0.1,0.6,0.1,1.4,0.3,2.2c0.2,1.3,0.4,2,0.5,2.5c0,0.4,0,0.7-0.4,1c-0.2,0.2-0.3,0.1-0.4,0.1
					c-0.3-0.1-0.5-0.3-0.6-0.9c-0.1-0.7-0.3-1.5-0.3-2.3c0-0.8,0-1.2,0-2c0-0.4,0.1-0.7,0.2-0.9c0-0.1,0-0.1,0.3-0.1
					C154.2,78.5,154.3,78.7,154.3,78.9"/>
			</g>
			<g>
				<path class="st1" d="M154.4,85.2c0.1,0.6,0.2,1.4,0.3,2.2c0.2,1.2,0.4,2,0.5,2.5c0,0.4,0,0.7-0.4,1c-0.2,0.1-0.3,0.1-0.3,0.1
					c-0.3-0.1-0.5-0.3-0.6-0.9c-0.1-0.7-0.2-1.5-0.3-2.3c0-0.8,0-1.2,0-2.1c0-0.4,0.1-0.7,0.2-0.9c0-0.1,0.1-0.1,0.3,0
					C154.3,84.8,154.4,85,154.4,85.2"/>
			</g>
			<g>
				<path class="st1" d="M154.4,91.6c0.1,0.6,0.2,1.4,0.3,2.2c0.2,1.3,0.4,2,0.5,2.5c0,0.4,0,0.7-0.4,1c-0.2,0.1-0.3,0.1-0.4,0.1
					c-0.3-0.1-0.5-0.3-0.6-0.9c-0.1-0.7-0.3-1.5-0.3-2.3c0-0.8,0-1.2,0-2c0-0.4,0.1-0.7,0.2-0.9c0,0,0-0.1,0.3,0
					C154.2,91.3,154.3,91.4,154.4,91.6"/>
			</g>
			<g>
				<path class="st1" d="M154.4,98c0.1,0.6,0.2,1.4,0.3,2.2c0.2,1.3,0.4,2,0.5,2.5c0,0.4,0,0.7-0.4,1c-0.2,0.1-0.3,0.1-0.4,0.1
					c-0.3-0.1-0.5-0.3-0.6-0.9c-0.1-0.7-0.3-1.5-0.3-2.3c0-0.8,0-1.2,0-2c0-0.4,0.1-0.7,0.2-0.9c0-0.1,0-0.1,0.3-0.1
					C154.2,97.6,154.3,97.8,154.4,98"/>
			</g>
			<g>
				<path class="st1" d="M160,45.2c-0.1,0.5-0.5,0.8-0.9,0.9c-0.5,0.1-0.8,0.1-1.3-0.1c-0.5-0.3-0.8-0.5-1.1-0.9
					c-0.3-0.4-0.7-0.8-1-1.6c-0.3-0.7-0.6-1.6-0.4-2.4c0.1-0.7,0.6-1.1,1.1-1.2c0.5-0.1,1.2,0.1,1.6,0.5c0.4,0.4,0.8,0.8,1.1,1.1
					c0.3,0.3,0.6,0.8,0.8,1.3c0.2,0.5,0.3,1.1,0.3,1.6C160.1,44.6,160,44.9,160,45.2"/>
			</g>
			<g>
				<path class="st1" d="M170.5,49.9c0.6-0.2,1.3-0.2,1.8-0.1c0.5,0.1,1,0.4,1.2,0.8c0.2,0.4,0.3,1.1,0.4,1.6c0,0.3,0,0.6-0.1,1
					c-0.2,0.8-0.4,1.2-0.7,1.5c-0.4,0.3-0.8,0.6-1.4,0.7c-0.6,0.1-1.1,0.3-1.9,0.4c-0.7,0-1.3,0-1.9-0.8c-0.6-0.7-0.6-1.4-0.4-2.5
					c0.2-1,0.7-1.6,1.3-2c0.3-0.2,0.6-0.4,0.9-0.4L170.5,49.9z"/>
			</g>
			<g>
				<path class="st1" d="M180.1,40.4c0.6-0.2,0.7,0.2,0.7,1.1c0.1,0.9,0.1,1.3,0,2.1c0,0.8-0.2,1.6-0.3,2.3
					c-0.1,0.7-0.4,0.9-0.7,1.1c-0.3,0.1-0.8-0.3-0.9-0.7c-0.1-0.4-0.1-0.9,0.1-1.4c0.1-0.5,0.2-1.1,0.3-1.8c0.1-0.7,0.1-1.5,0.3-2.2
					C179.7,40.6,179.8,40.4,180.1,40.4"/>
			</g>
			<g>
				<path class="st1" d="M180.1,33.5c0.2,0,0.3,0,0.3,0.1c0.3,0.3,0.3,0.6,0.4,1.1c0.1,0.7,0.2,1.5,0.1,2.8l-0.1,1.2
					c-0.1,0.8-0.2,1.3-0.5,1.7c-0.2,0.3-0.4,0.3-0.7,0.1c-0.3-0.3-0.4-0.6-0.4-1c0-0.5,0.1-1.1,0.3-2.1c0.2-1,0.3-1.9,0.3-2.5V34
					C179.7,33.7,179.8,33.6,180.1,33.5"/>
			</g>
			<g>
				<path class="st1" d="M180.1,47c0.2-0.1,0.3,0,0.3,0c0.1,0.2,0.1,0.5,0.2,0.9c0.1,0.9,0.1,1.3,0,2c0,0.8-0.2,1.6-0.3,2.3
					c-0.1,0.6-0.3,0.8-0.6,0.9c-0.1,0-0.2,0-0.3-0.1c-0.3-0.3-0.4-0.6-0.4-1c0.2-0.9,0.3-1.8,0.4-2.5c0.1-0.8,0.2-1.5,0.3-2.2
					C179.8,47.2,179.9,47.1,180.1,47"/>
			</g>
			<g>
				<path class="st1" d="M170.5,43.7c0.6-0.2,1.3-0.2,1.8-0.1c0.5,0.1,1,0.5,1.2,0.8c0.2,0.4,0.3,1.1,0.4,1.6c0,0.3,0,0.6-0.1,1
					c-0.2,0.8-0.4,1.2-0.7,1.5c-0.4,0.3-0.8,0.6-1.4,0.8c-0.6,0.1-1.1,0.3-1.9,0.4c-0.7,0-1.3,0-1.9-0.8c-0.6-0.7-0.6-1.4-0.4-2.5
					c0.2-1,0.7-1.6,1.3-2c0.3-0.2,0.6-0.4,0.9-0.4L170.5,43.7z"/>
			</g>
			<g>
				<path class="st1" d="M170.5,62.4c0.6-0.2,1.3-0.2,1.8-0.1c0.5,0.1,1,0.4,1.2,0.8c0.2,0.4,0.3,1.1,0.4,1.7c0,0.3,0,0.6-0.1,1
					c-0.2,0.7-0.4,1.2-0.7,1.5c-0.4,0.3-0.8,0.6-1.4,0.7c-0.6,0.1-1.1,0.4-1.9,0.4c-0.7,0-1.3-0.1-1.9-0.8c-0.6-0.7-0.6-1.4-0.4-2.5
					c0.2-1,0.7-1.6,1.3-2c0.3-0.2,0.6-0.4,0.9-0.4L170.5,62.4z"/>
			</g>
			<g>
				<path class="st1" d="M170.5,56.1c0.6-0.2,1.3-0.2,1.8-0.1c0.5,0.1,1,0.4,1.2,0.7c0.2,0.4,0.3,1.1,0.4,1.7c0,0.3,0,0.6-0.1,1
					c-0.2,0.8-0.4,1.2-0.7,1.5c-0.4,0.3-0.8,0.6-1.4,0.7s-1.1,0.3-1.9,0.4c-0.7,0-1.3,0-1.9-0.8c-0.6-0.7-0.6-1.4-0.4-2.5
					c0.2-1,0.7-1.6,1.3-2c0.3-0.2,0.6-0.4,0.9-0.4L170.5,56.1L170.5,56.1z"/>
			</g>
			<g>
				<path class="st1" d="M170.5,74.8c0.6-0.2,1.3-0.2,1.8-0.1c0.5,0.1,1,0.4,1.2,0.8c0.2,0.4,0.3,1.1,0.4,1.6c0,0.3,0,0.6-0.1,1
					c-0.2,0.8-0.4,1.2-0.7,1.5c-0.4,0.3-0.8,0.6-1.4,0.7c-0.6,0.1-1.1,0.3-1.9,0.4c-0.7,0.1-1.3,0-1.9-0.8c-0.6-0.7-0.6-1.4-0.4-2.5
					c0.2-1,0.7-1.6,1.3-2c0.3-0.2,0.6-0.4,0.9-0.4L170.5,74.8z"/>
			</g>
			<g>
				<path class="st1" d="M170.5,68.6c0.6-0.2,1.3-0.2,1.8-0.1c0.5,0.1,1,0.4,1.2,0.8c0.2,0.4,0.3,1.1,0.4,1.6c0,0.3,0,0.6-0.1,1
					c-0.2,0.8-0.4,1.2-0.7,1.5c-0.4,0.3-0.8,0.6-1.4,0.8c-0.6,0.1-1.1,0.4-1.9,0.4c-0.7,0-1.3,0-1.9-0.8c-0.6-0.7-0.6-1.4-0.4-2.5
					c0.2-1.1,0.7-1.6,1.3-2c0.3-0.2,0.6-0.3,0.9-0.4L170.5,68.6z"/>
			</g>
			<g>
				<path class="st1" d="M170.5,87.3c0.6-0.2,1.3-0.2,1.8-0.1c0.5,0.1,1,0.4,1.2,0.8c0.2,0.4,0.3,1.1,0.4,1.7c0,0.3,0,0.6-0.1,1
					c-0.2,0.8-0.4,1.2-0.7,1.5c-0.4,0.3-0.8,0.6-1.4,0.7c-0.6,0.1-1.1,0.3-1.9,0.4c-0.7,0-1.3-0.1-1.9-0.8c-0.6-0.7-0.6-1.4-0.4-2.5
					c0.2-1,0.7-1.6,1.3-2c0.3-0.2,0.6-0.4,0.9-0.4l0.1,0L170.5,87.3z"/>
			</g>
			<g>
				<path class="st1" d="M170.5,81c0.6-0.2,1.3-0.2,1.8-0.1c0.5,0.1,1,0.4,1.2,0.8c0.2,0.4,0.3,1.1,0.4,1.6c0,0.3,0,0.6-0.1,1
					c-0.2,0.8-0.4,1.2-0.7,1.5c-0.4,0.3-0.8,0.6-1.4,0.7c-0.6,0.1-1.1,0.4-1.9,0.4c-0.7,0-1.3-0.1-1.9-0.8c-0.6-0.7-0.6-1.4-0.4-2.5
					c0.2-1,0.7-1.6,1.3-2c0.3-0.2,0.6-0.3,0.9-0.4L170.5,81z"/>
			</g>
			<g>
				<path class="st1" d="M170.5,99.7c0.6-0.2,1.3-0.2,1.8-0.1c0.5,0.1,1,0.4,1.2,0.8c0.2,0.4,0.3,1.1,0.4,1.6c0,0.3,0,0.6-0.1,1
					c-0.2,0.8-0.4,1.2-0.7,1.5c-0.4,0.3-0.8,0.6-1.4,0.7c-0.6,0.1-1.1,0.4-1.9,0.4c-0.7,0.1-1.3,0-1.9-0.8c-0.6-0.7-0.6-1.4-0.4-2.5
					c0.2-1.1,0.7-1.6,1.3-2c0.3-0.2,0.6-0.3,0.9-0.4L170.5,99.7z"/>
			</g>
			<g>
				<path class="st1" d="M170.5,93.5c0.6-0.2,1.3-0.2,1.8-0.1c0.5,0.1,1,0.4,1.2,0.8c0.2,0.4,0.3,1.1,0.4,1.6c0,0.3,0,0.6-0.1,1
					c-0.2,0.8-0.4,1.2-0.7,1.5c-0.4,0.3-0.8,0.6-1.4,0.7c-0.6,0.1-1.1,0.4-1.9,0.4c-0.7,0.1-1.3,0-1.9-0.8c-0.6-0.7-0.6-1.4-0.4-2.5
					c0.2-1,0.7-1.6,1.3-2c0.3-0.2,0.6-0.4,0.9-0.4l0.1,0L170.5,93.5z"/>
			</g>
			<g>
				<path class="st1" d="M170.5,105.9c0.6-0.2,1.3-0.2,1.8-0.1c0.5,0.1,1,0.5,1.2,0.8c0.2,0.4,0.3,1.1,0.4,1.7c0,0.3,0,0.6-0.1,1
					c-0.2,0.8-0.4,1.2-0.7,1.5c-0.4,0.3-0.8,0.6-1.4,0.7c-0.6,0.1-1.1,0.3-1.9,0.4c-0.7,0-1.3-0.1-1.9-0.8c-0.6-0.7-0.6-1.4-0.4-2.5
					c0.2-1,0.7-1.5,1.3-2c0.3-0.2,0.6-0.4,0.9-0.4L170.5,105.9z"/>
			</g>
			<g>
				<path class="st1" d="M174.1,50.4c0-0.8,0.3-1.6,0.7-2.3c0.3-0.5,0.5-0.7,0.9-1.1c0.4-0.4,0.7-0.8,1.3-1c0.6-0.2,1.1-0.1,1.5,0.3
					c0.4,0.4,0.6,1.2,0.4,2c-0.2,0.8-0.5,1.6-0.9,2.1c-0.6,0.7-0.8,1.1-1.6,1.5c-0.5,0.3-0.8,0.3-1.3,0.2c-0.5-0.1-0.8-0.3-0.9-0.9
					C174.1,50.9,174.1,50.7,174.1,50.4"/>
			</g>
			<g>
				<path class="st1" d="M174.1,56.7c0-0.8,0.3-1.6,0.7-2.3c0.3-0.5,0.5-0.7,0.9-1.1c0.4-0.4,0.7-0.8,1.3-1c0.6-0.2,1.1-0.1,1.5,0.3
					c0.4,0.4,0.6,1.2,0.4,2c-0.2,0.8-0.5,1.7-0.9,2.1c-0.6,0.7-0.8,1.1-1.6,1.5c-0.5,0.3-0.8,0.3-1.3,0.2c-0.5-0.1-0.8-0.4-0.9-0.9
					C174.1,57.2,174.1,57,174.1,56.7"/>
			</g>
			<g>
				<path class="st1" d="M174.1,63c0-0.8,0.3-1.6,0.7-2.3c0.3-0.5,0.5-0.7,0.9-1.1c0.4-0.4,0.7-0.8,1.3-1c0.6-0.2,1.1-0.1,1.5,0.3
					c0.4,0.4,0.6,1.2,0.4,2c-0.2,0.8-0.5,1.6-0.9,2.1c-0.6,0.7-0.8,1.1-1.6,1.6c-0.5,0.3-0.8,0.3-1.3,0.2c-0.5-0.1-0.8-0.4-0.9-0.9
					C174.1,63.5,174.1,63.3,174.1,63"/>
			</g>
			<g>
				<path class="st1" d="M174.1,69.3c0-0.8,0.3-1.6,0.7-2.3c0.3-0.5,0.5-0.7,0.9-1.1c0.4-0.4,0.7-0.8,1.3-1c0.6-0.2,1.1-0.1,1.5,0.3
					c0.4,0.4,0.6,1.2,0.4,2c-0.2,0.8-0.5,1.6-0.9,2.1c-0.6,0.7-0.8,1.1-1.6,1.5c-0.5,0.3-0.8,0.3-1.3,0.2c-0.5-0.1-0.8-0.4-0.9-0.9
					C174.1,69.9,174.1,69.6,174.1,69.3"/>
			</g>
			<g>
				<path class="st1" d="M174.1,75.7c0-0.8,0.3-1.6,0.7-2.3c0.3-0.5,0.5-0.7,0.9-1.2c0.4-0.4,0.7-0.8,1.3-1c0.6-0.2,1.1-0.1,1.5,0.3
					c0.4,0.4,0.6,1.2,0.4,2c-0.2,0.8-0.5,1.7-0.9,2.1c-0.6,0.7-0.8,1.1-1.6,1.5c-0.5,0.3-0.8,0.3-1.3,0.2c-0.5-0.1-0.8-0.4-0.9-0.9
					C174.1,76.2,174.1,75.9,174.1,75.7"/>
			</g>
			<g>
				<path class="st1" d="M174.1,82c0-0.8,0.3-1.6,0.7-2.3c0.3-0.5,0.5-0.7,0.9-1.1c0.4-0.4,0.7-0.8,1.3-1c0.6-0.2,1.1-0.1,1.5,0.3
					c0.4,0.4,0.6,1.2,0.4,2c-0.2,0.8-0.5,1.6-0.9,2.1c-0.6,0.7-0.8,1.1-1.6,1.5c-0.5,0.3-0.8,0.3-1.3,0.2c-0.5-0.1-0.8-0.3-0.9-0.9
					C174.1,82.5,174.1,82.2,174.1,82"/>
			</g>
			<g>
				<path class="st1" d="M174.1,88.3c0-0.8,0.3-1.6,0.7-2.3c0.3-0.5,0.5-0.7,0.9-1.1c0.4-0.4,0.7-0.8,1.3-1c0.6-0.2,1.1-0.1,1.5,0.3
					c0.4,0.4,0.6,1.2,0.4,2c-0.2,0.8-0.5,1.6-0.9,2.1c-0.6,0.7-0.8,1.1-1.6,1.5c-0.5,0.3-0.8,0.3-1.3,0.2c-0.5-0.1-0.8-0.4-0.9-0.9
					C174.1,88.8,174.1,88.5,174.1,88.3"/>
			</g>
			<g>
				<path class="st1" d="M174.1,94.6c0-0.8,0.3-1.6,0.7-2.3c0.3-0.5,0.5-0.7,0.9-1.1c0.4-0.4,0.7-0.8,1.3-1c0.6-0.2,1.1-0.1,1.5,0.3
					c0.4,0.4,0.6,1.2,0.4,2c-0.2,0.8-0.5,1.7-0.9,2.1c-0.6,0.7-0.8,1.1-1.6,1.5c-0.5,0.3-0.8,0.3-1.3,0.2c-0.5-0.1-0.8-0.3-0.9-0.9
					C174.1,95.1,174.1,94.9,174.1,94.6"/>
			</g>
			<g>
				<path class="st1" d="M174.1,100.9c0-0.8,0.3-1.6,0.7-2.3c0.3-0.5,0.5-0.8,0.9-1.1c0.4-0.4,0.7-0.8,1.3-1
					c0.6-0.2,1.1-0.1,1.5,0.3c0.4,0.4,0.6,1.2,0.4,2c-0.2,0.8-0.5,1.6-0.9,2.1c-0.6,0.7-0.8,1.1-1.6,1.5c-0.5,0.3-0.8,0.3-1.3,0.2
					c-0.5-0.1-0.8-0.4-0.9-0.9C174.1,101.4,174.1,101.2,174.1,100.9"/>
			</g>
			<g>
				<path class="st1" d="M174.1,106.9c-0.1-0.8,0.3-1.6,0.7-2.3c0.3-0.5,0.5-0.7,0.9-1.1c0.4-0.4,0.7-0.8,1.4-1
					c0.6-0.2,1.1-0.1,1.5,0.3c0.4,0.4,0.6,1.2,0.4,2c-0.2,0.8-0.5,1.6-0.9,2.1c-0.6,0.7-0.8,1.1-1.6,1.5c-0.5,0.3-0.8,0.3-1.3,0.2
					c-0.5-0.1-0.8-0.4-0.9-0.9C174.2,107.5,174.1,107.2,174.1,106.9"/>
			</g>
			<g>
				<path class="st1" d="M180.1,53.3c0.2-0.1,0.3,0,0.3,0c0.1,0.2,0.1,0.5,0.2,0.9c0.1,0.9,0.1,1.3,0,2c0,0.8-0.2,1.6-0.3,2.3
					c-0.1,0.6-0.3,0.8-0.6,0.9c0,0-0.1,0.1-0.3-0.1c-0.3-0.3-0.4-0.6-0.4-1c0.2-0.9,0.4-1.8,0.5-2.5c0.1-0.7,0.1-1.6,0.3-2.2
					C179.8,53.5,179.9,53.4,180.1,53.3"/>
			</g>
			<g>
				<path class="st1" d="M180.1,59.7c0.2-0.1,0.3,0,0.3,0.1c0.1,0.2,0.1,0.5,0.2,0.9c0.1,0.9,0.1,1.3,0,2c-0.1,0.8-0.2,1.6-0.3,2.3
					c-0.1,0.6-0.3,0.8-0.6,0.9c-0.1,0-0.2,0-0.4-0.1c-0.3-0.3-0.4-0.6-0.4-1c0.2-0.9,0.3-1.8,0.5-2.5c0.1-0.7,0.1-1.5,0.3-2.2
					C179.8,59.9,179.9,59.8,180.1,59.7"/>
			</g>
			<g>
				<path class="st1" d="M180.2,65.8c0.2-0.1,0.3,0,0.3,0c0.1,0.2,0.1,0.5,0.2,0.9c0.1,0.9,0.1,1.3,0,2c0,0.8-0.2,1.6-0.3,2.3
					c-0.1,0.6-0.3,0.8-0.6,0.9c0,0-0.1,0.1-0.3-0.1c-0.3-0.3-0.4-0.6-0.4-1c0.2-0.9,0.3-1.8,0.5-2.4c0.1-0.8,0.1-1.6,0.2-2.2
					C179.9,66,180,65.9,180.2,65.8"/>
			</g>
			<g>
				<path class="st1" d="M180.1,72.2c0.2-0.1,0.3,0,0.3,0c0.1,0.2,0.1,0.5,0.2,0.9c0.1,0.8,0.1,1.3,0,2c0,0.8-0.2,1.6-0.3,2.3
					c-0.1,0.6-0.3,0.8-0.6,0.9c-0.1,0-0.2,0-0.3-0.1c-0.3-0.3-0.4-0.6-0.4-1c0.2-0.9,0.3-1.8,0.4-2.5c0.1-0.8,0.2-1.6,0.3-2.2
					C179.8,72.4,179.9,72.3,180.1,72.2"/>
			</g>
			<g>
				<path class="st1" d="M180.1,78.3c0.2-0.1,0.3,0,0.3,0c0.1,0.2,0.1,0.5,0.2,0.9c0.1,0.9,0.1,1.3,0,2.1c0,0.7-0.2,1.5-0.3,2.2
					c-0.1,0.6-0.3,0.8-0.6,0.9c-0.1,0-0.2,0-0.3-0.1c-0.3-0.3-0.4-0.6-0.4-1c0.2-0.9,0.3-1.8,0.4-2.5c0.1-0.7,0.2-1.5,0.3-2.2
					C179.8,78.5,179.9,78.4,180.1,78.3"/>
			</g>
			<g>
				<path class="st1" d="M180.1,84.8c0.2-0.1,0.3,0,0.3,0c0.1,0.2,0.1,0.5,0.2,0.9c0.1,0.8,0.1,1.3,0,2.1c0,0.7-0.2,1.6-0.3,2.3
					c-0.1,0.6-0.3,0.8-0.6,0.9c-0.1,0-0.2,0-0.3-0.1c-0.3-0.3-0.4-0.6-0.4-1c0.2-0.9,0.3-1.8,0.4-2.5c0.1-0.8,0.2-1.5,0.3-2.2
					C179.8,85,179.9,84.8,180.1,84.8"/>
			</g>
			<g>
				<path class="st1" d="M180.1,91.1c0.2-0.1,0.3,0,0.3,0.1c0.1,0.2,0.1,0.5,0.2,0.9c0.1,0.9,0.1,1.3,0,2c0,0.8-0.2,1.5-0.3,2.3
					c-0.1,0.6-0.3,0.8-0.6,0.9c-0.1,0-0.2,0-0.3-0.1c-0.3-0.3-0.4-0.6-0.4-1c0.2-0.9,0.3-1.8,0.4-2.4c0.1-0.7,0.2-1.6,0.3-2.2
					C179.8,91.3,179.9,91.1,180.1,91.1"/>
			</g>
			<g>
				<path class="st1" d="M180.1,97.3c0.2-0.1,0.3,0,0.3,0c0.1,0.2,0.1,0.5,0.2,0.9c0.1,0.9,0.1,1.3,0,2c0,0.7-0.2,1.5-0.3,2.3
					c-0.1,0.6-0.3,0.8-0.6,0.9c-0.1,0-0.2,0-0.3-0.1c-0.3-0.3-0.4-0.6-0.4-1c0.2-0.9,0.3-1.8,0.4-2.5c0.1-0.7,0.2-1.6,0.3-2.2
					C179.8,97.5,179.9,97.4,180.1,97.3"/>
			</g>
			<g>
				<path class="st1" d="M174.1,44.2c0-0.8,0.3-1.6,0.7-2.3c0.3-0.5,0.5-0.7,0.9-1.1c0.4-0.4,0.7-0.8,1.3-1c0.6-0.2,1.1-0.1,1.5,0.3
					c0.4,0.4,0.6,1.2,0.4,2c-0.2,0.8-0.5,1.6-0.9,2.1c-0.6,0.7-0.8,1.1-1.6,1.5c-0.5,0.3-0.8,0.3-1.3,0.2c-0.5-0.1-0.8-0.4-0.9-0.9
					C174.1,44.8,174.1,44.5,174.1,44.2"/>
			</g>
			<g>
				<path class="st1" d="M160.7,30c0,0.4-0.4,0.9-0.8,1.2c-1,0.8-2.8,1.9-4.7,2.3c-0.5,0.1-1.1-0.5-1.3-1c-0.8-1.4-0.7-3.4-0.3-4.6
					c0.3-0.8,1-1.7,1.6-1.5c2,0.5,4.1,1.7,4.7,2.3C160.6,29.4,160.7,29.6,160.7,30"/>
			</g>
			<g>
				<path class="st1" d="M169,36.1c0.4-0.1,1,0.1,1.4,0.4c1.1,0.7,2.7,2.1,3.6,3.9c0.2,0.4-0.1,1.2-0.5,1.6c-1.1,1.1-3,1.7-4.2,1.6
					c-0.9-0.1-1.8-0.4-1.9-1.1c-0.2-2.1,0.4-4.4,0.8-5.3C168.6,36.4,168.7,36.2,169,36.1"/>
			</g>
			<g>
				<path class="st1" d="M165.1,36.1c0.4,0.1,0.8,0.6,0.9,1.1c0.5,1.2,0.9,3.3,0.7,5.3c-0.1,0.5-0.8,0.8-1.3,1
					c-1.5,0.3-3.4-0.4-4.4-1.2c-0.7-0.6-1.2-1.5-0.9-2c1-1.8,2.8-3.4,3.7-3.8C164.5,36.1,164.7,36,165.1,36.1"/>
			</g>
			<g>
				<path class="st1" d="M162.2,33.6c0.2,0.3,0.2,1,0.1,1.5c-0.4,1.3-1.2,3.3-2.5,4.7c-0.4,0.4-1.2,0.2-1.7,0
					c-1.4-0.7-2.5-2.4-2.8-3.6c-0.2-0.9-0.2-1.9,0.4-2.2c1.9-0.8,4.3-1,5.2-0.9C161.7,33.2,162,33.3,162.2,33.6"/>
			</g>
			<g>
				<path class="st1" d="M173.4,30c0-0.4,0.4-0.9,0.8-1.2c1-0.8,2.8-1.9,4.8-2.3c0.5-0.1,1,0.5,1.3,1c0.7,1.4,0.6,3.4,0.2,4.6
					c-0.3,0.8-1,1.6-1.6,1.5c-2-0.5-4-1.8-4.7-2.4C173.5,30.6,173.4,30.4,173.4,30"/>
			</g>
			<g>
				<path class="st1" d="M169.1,24.1c-0.4-0.1-0.7-0.6-0.9-1.1c-0.5-1.3-0.9-3.3-0.7-5.3c0.1-0.5,0.8-0.9,1.3-1
					c1.5-0.3,3.4,0.4,4.4,1.2c0.7,0.6,1.2,1.5,0.9,2c-1.1,1.8-2.9,3.4-3.7,3.8C169.7,24.1,169.5,24.2,169.1,24.1"/>
			</g>
			<g>
				<path class="st1" d="M165.3,24.1c-0.4,0.1-1-0.1-1.4-0.3c-1.1-0.7-2.7-2.1-3.7-3.8c-0.2-0.4,0.1-1.2,0.5-1.6
					c1.1-1.1,3-1.8,4.2-1.7c0.9,0.1,1.8,0.4,1.9,1c0.2,2.1-0.3,4.5-0.7,5.3C165.7,23.8,165.6,24,165.3,24.1"/>
			</g>
			<g>
				<path class="st1" d="M172.2,26.3c-0.2-0.3-0.2-1-0.1-1.4c0.4-1.3,1.2-3.2,2.5-4.7c0.3-0.4,1.1-0.2,1.6,0
					c1.4,0.7,2.5,2.4,2.8,3.6c0.2,0.9,0.2,1.9-0.4,2.2c-1.9,0.8-4.3,1-5.2,0.9C172.7,26.6,172.4,26.6,172.2,26.3"/>
			</g>
			<g>
				<path class="st1" d="M172.2,33.7c0.2-0.3,0.8-0.5,1.3-0.5c1.3-0.1,3.4,0.1,5.2,1c0.4,0.2,0.5,1,0.5,1.6
					c-0.2,1.6-1.4,3.2-2.5,3.8c-0.7,0.5-1.7,0.7-2.2,0.3c-1.4-1.6-2.3-3.8-2.4-4.8C172,34.3,172,34,172.2,33.7"/>
			</g>
			<g>
				<path class="st1" d="M162,26.3c-0.2,0.3-0.8,0.5-1.3,0.6c-1.3,0.1-3.4-0.1-5.2-0.9c-0.4-0.2-0.6-1.1-0.5-1.6
					c0.2-1.6,1.4-3.2,2.4-3.8c0.7-0.5,1.7-0.8,2.2-0.3c1.4,1.6,2.3,3.8,2.5,4.7C162.2,25.7,162.3,26,162,26.3"/>
			</g>
			<g>
				<path class="st1" d="M167.2,36c3.2,0,5.9-2.7,5.9-5.9c0-3.3-2.6-5.9-5.9-5.9s-5.8,2.7-5.8,5.9C161.3,33.3,163.9,36,167.2,36"/>
			</g>
			<g>
				<rect x="4.3" y="124.5" class="st1" width="288" height="1.3"/>
			</g>
			<g>
				<path class="st1" d="M35.6,167.8c-3.4,2-7.4,2.6-11.4,2.6c-5.1,0-10.3-1.1-14.1-4.5c-3.9-3.4-5.5-8.1-5.5-13.1
					c0-11,9.3-16.5,19.8-16.5c4.1,0,7.3,0.5,11.3,1.8c0.4,0.1,0.9,0.2,0.8,1c-0.3,1.6-0.7,5.3-0.8,7.4h-1.9
					c-0.1-1.4-0.1-2.7-0.3-4.1c-2.4-2.4-5.5-3.3-8.9-3.3c-3.7,0-7.2,1.3-9.6,4c-2.2,2.4-2.9,6-2.9,9.2c0,4,1,7.9,3.9,10.9
					c3,3.1,6.3,4.2,10.7,4.2c2.9,0,7-1,9.5-2.4l0.6,0.6L35.6,167.8z"/>
			</g>
			<g>
				<path class="st1" d="M48.3,142.7c-0.1-3.5-0.3-3.8-4.2-3.7v-2c3.3,0.1,5.8,0.2,7.8,0.2c1.9,0,4.4-0.1,7.7-0.3v2.1
					c-4-0.1-4.2,0.2-4.2,3.7v21.5c0,3.5,0.2,3.9,4.2,3.7v2.1c-3.3-0.2-5.7-0.3-7.7-0.3c-1.9,0-4.5,0.1-7.8,0.3v-2
					c4,0.1,4.2-0.3,4.2-3.8V142.7z"/>
			</g>
			<g>
				<path class="st1" d="M102.5,143.4l-5.4,10.5l-7.3,15.2l-0.6,1.1h-1.7c-0.1-0.4-1.1-2.7-1.8-4l-11.4-22.8v20.8
					c0,3.5,0.2,3.8,4.2,3.7v2.1c-2.3-0.2-4.2-0.3-5.6-0.3s-3.3,0.1-5.7,0.3v-2.1c4,0.2,4.2-0.2,4.2-3.7v-21.5c0-3.5-0.2-3.8-4.2-3.7
					v-2.1c2.9,0.1,4.8,0.2,6.2,0.2c1.5,0,3.3-0.1,5.7-0.3c0.9,2.1,2.6,5.7,3.7,7.8l7.8,15.9c0.8-1.4,1.5-2.8,2.2-4.2
					c3.6-7.5,8-16.4,9.3-19.5c2.4,0.1,4.3,0.2,5.7,0.2c1.5,0,3.3-0.1,5.8-0.3v2.1c-4-0.1-4.2,0.2-4.2,3.7v21.5
					c0,3.5,0.2,3.8,4.2,3.7v2.1c-3.3-0.2-5.8-0.3-7.7-0.3c-1.9,0-4.5,0.1-7.7,0.3v-2c4,0.1,4.2-0.3,4.2-3.7L102.5,143.4L102.5,143.4
					z"/>
			</g>
			<g>
				<path class="st1" d="M156.3,143.4l-5.4,10.5l-7.3,15.2l-0.6,1.1h-1.7c-0.1-0.4-1.1-2.7-1.8-4l-11.4-22.8v20.8
					c0,3.5,0.2,3.8,4.2,3.7v2.1c-2.3-0.2-4.2-0.3-5.6-0.3c-1.4,0-3.3,0.1-5.7,0.3v-2.1c4,0.2,4.2-0.2,4.2-3.7v-21.5
					c0-3.5-0.2-3.8-4.2-3.7v-2.1c2.9,0.1,4.7,0.2,6.2,0.2c1.5,0,3.3-0.1,5.7-0.3c0.9,2.1,2.6,5.7,3.7,7.8l7.9,15.9
					c0.8-1.4,1.5-2.8,2.2-4.2c3.6-7.5,8-16.4,9.3-19.5c2.4,0.1,4.3,0.2,5.7,0.2c1.5,0,3.3-0.1,5.7-0.3v2.1c-4-0.1-4.2,0.2-4.2,3.7
					v21.5c0,3.5,0.2,3.8,4.2,3.7v2.1c-3.3-0.2-5.7-0.3-7.7-0.3s-4.5,0.1-7.7,0.3v-2c4,0.1,4.2-0.3,4.2-3.7L156.3,143.4L156.3,143.4
					L156.3,143.4z"/>
			</g>
			<g>
				<path class="st1" d="M192.8,152.6c3.9-6.2,7.4-11.5,9.3-15.5h3.8v0.9l-2,2.7l-5.3,7.8l-2.2,3.5l-1.6,3.1
					c-0.3,0.6-0.3,1.5-0.3,2.3v6.8c0,3.5,0.2,3.9,4.2,3.7v2.1c-3.3-0.1-5.8-0.3-7.7-0.3c-1.9,0-4.5,0.1-7.7,0.3v-2
					c4,0.1,4.2-0.3,4.2-3.8v-6c0-1-0.2-2-0.4-2.6c-0.5-1.1-1.2-2-1.7-3.1l-5-7.8c-0.8-1-1.7-2.3-2.6-3.2c-1.1-1.2-2.6-1.6-3.9-1.6
					v-1.8l7.9-1.7c2.7,1.5,4.2,4,5.7,6.5L192.8,152.6z"/>
			</g>
			<g>
				<path class="st1" d="M230.6,164.2c0,3.5,0.2,3.9,4.2,3.7v2.1c-3.3-0.2-5.8-0.3-7.7-0.3c-1.9,0-4.5,0.1-7.8,0.3v-2
					c4,0.1,4.2-0.3,4.2-3.8v-24.1h-7.3c-1.2,0.1-1.6,0.5-2.2,1.5c-0.1,0.8-0.1,2-0.3,3.2h-2c0.1-2.4-0.2-5.4-0.1-8
					c6.6,0.1,11.6,0.3,15.5,0.3c3.9,0,8.9-0.1,15.7-0.3c-0.2,2.2-0.4,5.1-0.6,8h-1.9c0-0.7,0-1.3-0.1-2c-0.3-2.4,0.2-2.7-2.6-2.8h-7
					L230.6,164.2L230.6,164.2z"/>
			</g>
		</g>
		<g>
			<g>
				<path class="st2" d="M272.2,154.2c-1.2-0.1-2.9-0.3-4.5-0.6c-1.1-0.2-2-0.7-2.8-1.6c-1.5-1.5-1.8-3.7-1.7-5.8c0.5,0,0.7,0,1.5,0
					c0.4,4.9,3.6,5.8,5.2,5.6c0.2-3.2,0.5-5.3,0.5-9.1c0.1-2-1.2-2-2.9-2.2c-1.5-0.2-6.5-0.5-7.9-0.6c-0.1,1-0.4,8.7-0.5,11.3
					c0,1-0.2,2.2,0.5,2.8c0.6,0.6,1.4,0.6,2.3,0.7c1.3,0.1,10.4,0.7,10.9,0.7L272.2,154.2z"/>
			</g>
			<g>
				<path class="st3" d="M273.8,147.8c0.7-1,1.7-2.4,2.7-3.6c0.7-0.8,1.6-1.4,2.8-1.7c2.1-0.5,4.1,0.3,5.8,1.5
					c-0.3,0.4-0.3,0.6-0.8,1.2c-4.4-2.1-6.8,0.2-7.5,1.7c2.7,1.8,4.3,3.1,7.6,5c1.6,1.1,2.3,0,3.3-1.4c0.9-1.2,3.7-5.4,4.5-6.5
					c-0.8-0.6-7.3-4.7-9.6-6.1c-0.9-0.5-1.8-1.2-2.7-1c-0.8,0.2-1.2,0.9-1.7,1.6c-0.7,1.1-5.8,8.6-6.1,9.1L273.8,147.8z"/>
			</g>
			<path class="st4" d="M284.2,160.8c-0.6-1.2-4.7-9.3-4.9-9.7l-0.9,1.3c0.5,1,1.2,2.7,1.8,4.2c0.4,1,0.4,2.1,0.1,3.3
				c-0.6,2-2.3,3.5-4.1,4.3c-0.3-0.4-0.3-0.6-0.7-1.3c4-2.8,3.2-6,2.2-7.4c-2.9,1.5-4.8,2.3-8.1,4.2c-1.8,0.9-1.1,2-0.4,3.6
				c0.6,1.4,2.9,5.8,3.5,7.1c0.9-0.5,7.7-4.1,10-5.3c0.9-0.5,1.9-1,2.2-1.8C285,162.3,284.6,161.6,284.2,160.8z"/>
		</g>
	</g>
</g>
</svg>
