<svg xmlns="http://www.w3.org/2000/svg" xmlns:xlink="http://www.w3.org/1999/xlink" width="78.189" height="80" viewBox="0 0 78.189 80">
  <defs>
    <clipPath id="clip-path">
      <rect id="Rectangle_25037" data-name="Rectangle 25037" width="78.189" height="80" fill="#ebd417"/>
    </clipPath>
  </defs>
  <g id="maize-wheat" transform="translate(0 0)">
    <g id="Group_106400" data-name="Group 106400" transform="translate(0 0)" clip-path="url(#clip-path)">
      <path id="Path_1774" data-name="Path 1774" d="M49.055,19.49A14.211,14.211,0,0,1,43.064,30.82,14.211,14.211,0,0,1,37.073,19.49,14.217,14.217,0,0,1,43.064,8.158,14.217,14.217,0,0,1,49.055,19.49M41.271,46.6c.037-.131,2.348-8.117-.65-12.913-3.022-4.833-5.468-4.305-7.412-5.136a8.811,8.811,0,0,1-4.75-4.044l-.066-.112,0,.007,0-.005,0,.005c-.037.131-2.348,8.117.65,12.911,3.022,4.835,5.468,4.307,7.412,5.137A8.819,8.819,0,0,1,41.205,46.5l.065.112,0-.005,0,0Zm0,16.7c.037-.132,2.348-8.117-.65-12.913-3.022-4.835-5.468-4.305-7.412-5.137a8.813,8.813,0,0,1-4.75-4.042l-.066-.112,0,.005,0-.005,0,.007c-.037.131-2.348,8.117.65,12.911,3.022,4.835,5.468,4.305,7.412,5.137a8.819,8.819,0,0,1,4.752,4.042l.065.112,0-.005,0,.005Zm0,16.694c.037-.131,2.348-8.117-.65-12.911-3.022-4.835-5.468-4.305-7.412-5.137a8.813,8.813,0,0,1-4.75-4.042l-.066-.112,0,.005,0,0,0,.005c-.037.131-2.348,8.115.65,12.911,3.022,4.835,5.468,4.305,7.412,5.137a8.819,8.819,0,0,1,4.752,4.042L41.27,80l0-.005,0,.005Zm3.957-33.386,0,0,0,.005L45.3,46.5a8.813,8.813,0,0,1,4.75-4.042c1.944-.83,4.39-.3,7.412-5.137,3-4.794.688-12.78.65-12.911l0-.005,0,.005,0-.007-.065.112a8.818,8.818,0,0,1-4.752,4.044c-1.942.83-4.39.3-7.412,5.136-3,4.8-.688,12.782-.65,12.913Zm0,16.7,0-.005,0,.005.066-.112a8.813,8.813,0,0,1,4.75-4.042c1.944-.832,4.39-.3,7.412-5.137,3-4.794.688-12.78.65-12.911l0-.007,0,.005,0-.005-.065.112a8.819,8.819,0,0,1-4.752,4.042c-1.942.832-4.39.3-7.412,5.137-3,4.8-.688,12.78-.65,12.913Zm0,16.7,0-.005,0,.005.066-.112a8.813,8.813,0,0,1,4.75-4.042c1.944-.832,4.39-.3,7.412-5.137,3-4.8.688-12.78.65-12.911l0-.005,0,0,0-.005-.065.112a8.819,8.819,0,0,1-4.752,4.042c-1.942.832-4.39.3-7.412,5.137-3,4.794-.688,12.78-.65,12.911ZM31.445,0H29V21h2.446ZM57.5,0H55.059V21H57.5ZM44.078,0h-2.7V4.835h2.7Z" transform="translate(19.191 -0.001)" fill="#ebd417"/>
      <path id="Path_1775" data-name="Path 1775" d="M1.93,11.087c4.246,7.047,7.76,13.636,10.641,19.461h2.57a1.918,1.918,0,0,1,1.912,1.912v2.109a1.9,1.9,0,0,1-1.66,1.859c1.3,2.784,2.419,5.317,3.382,7.555a1.791,1.791,0,0,1-.046-.231V41.644a1.917,1.917,0,0,1,1.912-1.912h2.738a1.917,1.917,0,0,1,1.912,1.912v2.107a1.917,1.917,0,0,1-1.912,1.913H20.641a1.885,1.885,0,0,1-1.446-.7c.626,1.467,1.178,2.789,1.66,3.956h2.525a1.917,1.917,0,0,1,1.912,1.912v1.63c1.017-1.671,2.348-4.107,3.85-6.794H28.88a1.919,1.919,0,0,1-1.913-1.913V41.644a1.918,1.918,0,0,1,1.913-1.912h2.738a1.879,1.879,0,0,1,.818.2c3.178-5.3,6.6-10.195,9.259-11.056,0,0,1.737,1.29,0,4.385a55.136,55.136,0,0,0-5.984,20.113c-1.158,10.057-6.178,14.441-7.142,14.183v6.188h-11.2V67.56s-6.563-1.8-7.915-10.057-.964-6.446-1.737-16.762S0,9.283,0,9.283s.182-1.452,1.93,1.8" transform="translate(0 6.251)" fill="#ebd417"/>
      <path id="Path_1776" data-name="Path 1776" d="M15.683,11.377h-2.74a1.918,1.918,0,0,1-1.912-1.912V7.359a1.917,1.917,0,0,1,1.912-1.912h2.74a1.917,1.917,0,0,1,1.912,1.912V9.466a1.918,1.918,0,0,1-1.912,1.912" transform="translate(7.697 3.8)" fill="#ebd417"/>
      <path id="Path_1777" data-name="Path 1777" d="M15.683,5.967h-2.74a1.918,1.918,0,0,1-1.912-1.912V1.947A1.91,1.91,0,0,1,12.943.037h2.74a1.917,1.917,0,0,1,1.912,1.912V4.056a1.918,1.918,0,0,1-1.912,1.912" transform="translate(7.697 0.025)" fill="#ebd417"/>
      <path id="Path_1778" data-name="Path 1778" d="M10.831,22.2H8.091a1.918,1.918,0,0,1-1.912-1.912V18.179a1.917,1.917,0,0,1,1.912-1.912h2.74a1.917,1.917,0,0,1,1.912,1.912v2.107A1.918,1.918,0,0,1,10.831,22.2" transform="translate(4.311 11.349)" fill="#ebd417"/>
      <path id="Path_1779" data-name="Path 1779" d="M15.683,16.787h-2.74a1.918,1.918,0,0,1-1.912-1.912V12.769a1.917,1.917,0,0,1,1.912-1.912h2.74a1.917,1.917,0,0,1,1.912,1.912v2.107a1.918,1.918,0,0,1-1.912,1.912" transform="translate(7.697 7.575)" fill="#ebd417"/>
      <path id="Path_1780" data-name="Path 1780" d="M10.831,11.377H8.091A1.918,1.918,0,0,1,6.179,9.466V7.359A1.917,1.917,0,0,1,8.091,5.447h2.74a1.917,1.917,0,0,1,1.912,1.912V9.466a1.918,1.918,0,0,1-1.912,1.912" transform="translate(4.311 3.8)" fill="#ebd417"/>
      <path id="Path_1781" data-name="Path 1781" d="M10.831,16.787H8.091a1.918,1.918,0,0,1-1.912-1.912V12.769a1.917,1.917,0,0,1,1.912-1.912h2.74a1.917,1.917,0,0,1,1.912,1.912v2.107a1.918,1.918,0,0,1-1.912,1.912" transform="translate(4.311 7.575)" fill="#ebd417"/>
      <path id="Path_1782" data-name="Path 1782" d="M15.683,22.2h-2.74a1.918,1.918,0,0,1-1.912-1.912V18.177a1.91,1.91,0,0,1,1.912-1.91h2.74a1.917,1.917,0,0,1,1.912,1.912v2.107A1.918,1.918,0,0,1,15.683,22.2" transform="translate(7.697 11.349)" fill="#ebd417"/>
      <path id="Path_1783" data-name="Path 1783" d="M20.536,27.607H17.8A1.918,1.918,0,0,1,15.884,25.7V23.589A1.917,1.917,0,0,1,17.8,21.677h2.74a1.917,1.917,0,0,1,1.912,1.912V25.7a1.918,1.918,0,0,1-1.912,1.912" transform="translate(11.083 15.124)" fill="#ebd417"/>
      <path id="Path_1784" data-name="Path 1784" d="M20.536,22.2H17.8a1.918,1.918,0,0,1-1.912-1.912V18.179A1.917,1.917,0,0,1,17.8,16.267h2.74a1.917,1.917,0,0,1,1.912,1.912v2.107A1.918,1.918,0,0,1,20.536,22.2" transform="translate(11.083 11.349)" fill="#ebd417"/>
      <path id="Path_1785" data-name="Path 1785" d="M20.536,11.377H17.8a1.918,1.918,0,0,1-1.912-1.912V7.359A1.917,1.917,0,0,1,17.8,5.447h2.74a1.917,1.917,0,0,1,1.912,1.912V9.466a1.918,1.918,0,0,1-1.912,1.912" transform="translate(11.083 3.8)" fill="#ebd417"/>
      <path id="Path_1786" data-name="Path 1786" d="M20.536,16.787H17.8a1.918,1.918,0,0,1-1.912-1.912V12.769A1.917,1.917,0,0,1,17.8,10.857h2.74a1.917,1.917,0,0,1,1.912,1.912v2.107a1.918,1.918,0,0,1-1.912,1.912" transform="translate(11.083 7.575)" fill="#ebd417"/>
      <path id="Path_1787" data-name="Path 1787" d="M15.683,27.607h-2.74A1.918,1.918,0,0,1,11.031,25.7V23.589a1.917,1.917,0,0,1,1.912-1.912h2.74a1.917,1.917,0,0,1,1.912,1.912V25.7a1.918,1.918,0,0,1-1.912,1.912" transform="translate(7.697 15.124)" fill="#ebd417"/>
    </g>
  </g>
</svg>
